<svg xmlns="http://www.w3.org/2000/svg" width="16.571428571428584" height="17.285714285714278" style="fill: rgb(63, 185, 80);"><rect id="backgroundrect" width="100%" height="100%" x="0" y="0" fill="none" stroke="none" style="" class="selected"/>
    
    
<g class="currentLayer" style=""><title>Layer 1</title><path d="M0.1428571492433548,8.857142895460129 c0,-4.389 3.611,-8 8,-8 c4.389,0 8,3.611 8,8 c0,4.389 -3.611,8 -8,8 c-4.389,0 -8,-3.611 -8,-8 zm1.5,0 c0,3.566 2.934,6.5 6.5,6.5 c3.566,0 6.5,-2.934 6.5,-6.5 c0,-3.566 -2.934,-6.5 -6.5,-6.5 c-3.566,0 -6.5,2.934 -6.5,6.5 zm10.28,-1.7200000000000002 l-4.5,4.5 c-0.2910000000000001,0.2910000000000001 -0.7690000000000002,0.2910000000000001 -1.06,0 l-2,-2 c-0.274,-0.2940000000000001 -0.266,-0.7580000000000002 0.018000000000000006,-1.042 c0.2840000000000001,-0.2840000000000001 0.7480000000000002,-0.2920000000000001 1.042,-0.018000000000000006 l1.47,1.47 l3.9699999999999998,-3.9699999999999998 c0.2940000000000001,-0.274 0.7580000000000002,-0.266 1.042,0.018000000000000006 c0.2840000000000001,0.2840000000000001 0.2920000000000001,0.7480000000000002 0.018000000000000006,1.042 z" id="svg_1" class=""/></g></svg>