<svg xmlns="http://www.w3.org/2000/svg" xmlns:xlink="http://www.w3.org/1999/xlink" version="1.1" id="Layer_1" x="0px" y="0px" width="100%" viewBox="0 0 1024 528" enable-background="new 0 0 1024 528" xml:space="preserve">
<path fill="#ffffff" opacity="1.000000" stroke="none" d=" M385.000000,487.157898   C300.049622,487.158203 215.599243,487.158203 131.148865,487.158203   C130.734390,486.696533 130.319931,486.234833 129.905472,485.773163   C217.820938,333.498169 305.736420,181.223160 394.494232,27.489157   C483.168427,181.111954 571.032532,333.331329 658.792358,485.370056   C656.810120,487.651306 654.853455,487.096161 653.113953,487.098236   C621.282288,487.136078 589.450195,487.057159 557.619263,487.212921   C553.365723,487.233704 551.036011,485.689453 549.005188,482.045349   C534.244507,455.558533 519.869141,428.831909 504.262817,402.847229   C479.735992,362.009766 456.580170,320.392761 432.641266,279.223511   C421.419464,259.924683 410.417480,240.498032 399.313110,221.130890   C398.815948,220.263763 398.320496,219.393372 397.774963,218.556641   C395.006439,214.310257 393.862457,214.263657 391.273285,218.732117   C378.827637,240.211090 366.434814,261.720795 354.067993,283.245300   C334.066345,318.058319 314.097321,352.890106 294.125977,387.720490   C293.224396,389.292847 292.435272,390.929688 291.610107,392.505310   C293.460388,394.797241 295.778717,394.023651 297.808960,394.026947   C327.807312,394.075684 357.806274,394.148010 387.803711,393.976288   C392.479736,393.949524 395.417419,395.226410 397.824860,399.470306   C413.526093,427.148712 429.478912,454.684357 445.345245,482.269135   C445.997559,483.403229 446.891083,484.468231 446.304016,487.157562   C426.219025,487.157562 405.859528,487.157562 385.000000,487.157898  z"/>
<path fill="#ffffff" opacity="1.000000" stroke="none" d=" M589.681335,185.248749   C559.548706,133.214310 529.592529,81.500206 499.741455,29.967577   C501.566101,27.440495 503.714294,28.023954 505.604858,28.021015   C537.598145,27.971317 569.591736,28.024254 601.584534,27.881456   C605.761902,27.862812 608.132690,29.285299 610.248169,32.979237   C647.831482,98.606522 685.583679,164.137009 723.264343,229.708572   C767.750671,307.123291 812.203003,384.557556 856.671387,461.982605   C860.404541,468.482544 864.180603,474.958221 867.857971,481.489563   C868.634827,482.869324 870.000244,484.110046 869.527405,486.048920   C867.858521,487.613434 865.757263,487.063782 863.841736,487.067200   C832.515015,487.123169 801.187927,487.073792 769.861694,487.217834   C766.054260,487.235352 763.879456,485.986450 761.947632,482.647186   C709.395142,391.807739 656.733398,301.031494 604.094849,210.241821   C599.332214,202.027390 594.602722,193.793793 589.681335,185.248749  z"/>
</svg>